<svg xmlns="http://www.w3.org/2000/svg" viewBox="0 0 83.4 62.36"><title>checkout_2</title><g id="Layer_2" data-name="Layer 2"><g id="Layer_1-2" data-name="Layer 1"><path d="M25.51,17.94c.54-2,.93-3.57,1.35-5.11a20.27,20.27,0,0,1,3.8-7.67,14.21,14.21,0,0,1,22.13.27,21.89,21.89,0,0,1,3.8,8.2c.36,1.37.73,2.73,1.16,4.31h11.7c3.67,0,7.35,0,11,.05,2.27.06,3.09,1.09,2.92,3.41a11.48,11.48,0,0,1-.59,2.79Q77,41.44,71.09,58.66c-1.15,3.34-1.61,3.67-5.21,3.68q-24.21,0-48.41,0c-3.53,0-3.91-.3-5.11-3.81Q6.44,41.31.62,24.07A9.49,9.49,0,0,1,.18,22.7c-.57-3.22.11-4.83,3.89-4.78,5.43.08,10.86,0,16.3,0Zm25.06-.41C50.86,13.38,49,9.11,46,7.2A8.1,8.1,0,0,0,35.86,8.36a13.12,13.12,0,0,0-3.58,9C36.08,18.09,46.32,18.14,50.57,17.53ZM43.66,36c.24,3.16-.59,5.83.76,8.67,4.72,0,9.42.37,14.25-.29A20.45,20.45,0,0,0,58.61,36,82.86,82.86,0,0,0,43.66,36Zm-4.33-.19c-2.89,0-5.25-.16-7.6-.07s-5-.58-7.47.69c-.18,2.72-.54,5.35.3,8.22,2.59,0,4.94.16,7.29.07s5,.55,7.48-.67ZM24.19,31a7.72,7.72,0,0,0,2.16.64c4.26,0,8.55.44,12.9-.36A17.39,17.39,0,0,0,39,23.86c-2.54,0-4.91-.14-7.28,0s-5.07-.59-7.54.69ZM39.26,49.29a43,43,0,0,0-15.09.06c.07,2.2-.54,4.49.38,6.85a28.86,28.86,0,0,0,7.26.28c2.48-.05,5.05.55,7.63-.66A27.85,27.85,0,0,0,39.26,49.29Zm4.85,7a44.59,44.59,0,0,0,7.19.17c2.46-.07,5,.46,7.46-.48.28-2.52.62-4.81-.42-7.34-4,0-8,0-11.93,0a16.6,16.6,0,0,0-2.32.34A14.65,14.65,0,0,0,44.11,56.32Zm-.2-25a27.59,27.59,0,0,0,7.42.35c2.47-.06,5,.57,7.43-.63.26-2.42.64-4.73-.29-6.89-5.6-.64-11-.54-14.56.28ZM76,24.05a66,66,0,0,0-12.53,0,19.36,19.36,0,0,0,0,7.49,50.69,50.69,0,0,0,10.15-.07A16.4,16.4,0,0,0,76,24.05Zm-68.64.07A17.67,17.67,0,0,0,10,31.7c2.58,0,5.26,0,7.94,0a12.35,12.35,0,0,0,2-.37A21.39,21.39,0,0,0,19.82,24,59.2,59.2,0,0,0,7.39,24.12Zm56,20.28a12.28,12.28,0,0,0,6.39-.23c.54-2.61,2.29-5,2.15-8.45-2.93.23-5.68-.65-8.54.63Zm-43.16.07c-.23-3.19.41-5.86-.47-8.35-5.07-.66-5.12-.66-8.3.48a31.25,31.25,0,0,0,2.8,7.87Zm-.42,12.08a15.62,15.62,0,0,0-.13-7.83L15.46,49c.82,2.39,1.44,4.47,2.29,6.46C18,55.93,18.9,56.1,19.75,56.54Zm43.73-.1c.92-.2,1.58-.14,1.75-.41a15.51,15.51,0,0,0,2.42-7.16H63.59A18.38,18.38,0,0,0,63.48,56.44Z"/></g></g></svg>