<svg xmlns="http://www.w3.org/2000/svg" viewBox="0 0 81.61 49.73"><defs><style>.cls-1{fill:#fff;}</style></defs><title>Asset 1</title><g id="Layer_2" data-name="Layer 2"><g id="Layer_1-2" data-name="Layer 1"><path class="cls-1" d="M14.67,16.9c.85,2.82.56,5.68.73,8.51a7.68,7.68,0,0,0,.77,2.65c.12.27.8.36,1.23.37.24,0,.54-.29.71-.53a1.63,1.63,0,0,0,.33-.88c0-4.31.13-8.62,0-12.93-.06-2.11-1.1-3.41-3.2-3.56A80.9,80.9,0,0,0,3.8,10.48C1.28,10.65.21,12.13.07,14.66,0,16.73,0,18.81,0,20.89S0,25,.1,27.12c.07,1.31.8,2,2.41,1.59,1.44-3.53,0-7.46,1.2-12.22.15,6.71.3,12.28.38,17.86.06,4,0,8,0,12,0,2.19.67,3.24,1.91,3.4,1.39.18,2.44-1.43,2.39-3.44-.11-4.47-.05-8.94,0-13.42,0-1.22.2-2.45.31-3.59,1.42-.17,1.67.59,1.67,1.42,0,4.79,0,9.58.07,14.37a11.33,11.33,0,0,0,.26,3.31,2.26,2.26,0,0,0,1.72,1.24,2.23,2.23,0,0,0,1.74-1.21,14.87,14.87,0,0,0,.29-3.79c0-7.83,0-15.65,0-23.48C14.53,19.73,14.62,18.31,14.67,16.9Zm9.16,0c.05,1.25.15,2.5.16,3.75.05,8,.08,16,.14,24a14.1,14.1,0,0,0,.34,3.78,2.27,2.27,0,0,0,1.78,1.2A2.47,2.47,0,0,0,28,48.33,5.41,5.41,0,0,0,28.26,46c0-2.4,0-4.79,0-7.19,0-2.87,0-5.75.15-8.62,0-1,.74-1.31,1.84-.63.06,1.14.16,2.41.17,3.67,0,3.84,0,7.67,0,11.51a31.48,31.48,0,0,0,.15,3.35,1.86,1.86,0,0,0,2,1.62,2,2,0,0,0,1.83-1.87c.08-1.11.08-2.23.08-3.35,0-8,.05-16,.1-24,0-1.14.13-2.28.2-3.42a46.79,46.79,0,0,1,.62,8.59A5.74,5.74,0,0,0,36,27.91a1.4,1.4,0,0,0,1.16.59,2.07,2.07,0,0,0,1.1-.79,1.49,1.49,0,0,0,.24-.91c0-4.15.11-8.31,0-12.46-.07-2.3-1.16-3.67-3.49-3.86a73.15,73.15,0,0,0-11-.06c-3,.22-4,2.16-3.93,4.5.06,3.83,0,7.67,0,11.51a4.06,4.06,0,0,0,.42,1.81,1.44,1.44,0,0,0,1.14.62c.38,0,1-.42,1.07-.73a28.77,28.77,0,0,0,.35-3.78C23.22,21.86,23,19.36,23.83,16.89Zm31.9.29.76-.08c0,2.54,0,5.07,0,7.61a9.78,9.78,0,0,0,.29,2.84,2.07,2.07,0,0,0,1.42,1c.3.06.85-.44,1.07-.81a2.82,2.82,0,0,0,.28-1.39c0-3.84.1-7.68,0-11.51-.07-2.79-1.24-4.23-4-4.43A67.31,67.31,0,0,0,45,10.43c-2.81.24-3.79,1.6-3.85,4.52-.08,3.84,0,7.68,0,11.51a10.75,10.75,0,0,0,.45,2.16c1.29.51,2.2.22,2.35-1,.21-1.57.14-3.18.21-4.78.09-2-.27-4.05.51-6a23.78,23.78,0,0,1,.36,4.24c0,8,.06,16,.1,24a10.64,10.64,0,0,0,.3,3.31,2.3,2.3,0,0,0,1.77,1.21,2.24,2.24,0,0,0,1.69-1.25A11.25,11.25,0,0,0,49.21,45c0-4.48,0-9,0-13.43a9.43,9.43,0,0,1,.5-2.25.48.48,0,0,1,.41-.2c.29,0,.77.12.81.29a9.18,9.18,0,0,1,.41,2.32c0,4.16,0,8.31,0,12.47a36.19,36.19,0,0,0,.18,3.83,1.85,1.85,0,0,0,2,1.62,2,2,0,0,0,1.86-1.85,21,21,0,0,0,.09-2.39c0-2.72,0-5.44,0-8.16Q55.64,27.23,55.74,17.18ZM67.08,17c0,1.09,0,2.19,0,3.28q0,11.75.09,23.49c0,1.28,0,2.56.07,3.83a2,2,0,0,0,2.12,2.08,1.9,1.9,0,0,0,1.78-1.9c.09-1.11.1-2.23.1-3.35,0-4,0-8,0-12a17.05,17.05,0,0,1,.3-2.83c0-.21.46-.47.72-.49s.74.2.78.38a15.7,15.7,0,0,1,.34,2.83c0,4.31,0,8.63,0,12.94a12.18,12.18,0,0,0,.41,3.29,1.81,1.81,0,0,0,1.39,1c.7-.07,1.76-.51,1.93-1a12.66,12.66,0,0,0,.41-3.77c.07-8.31.09-16.62.15-24.93,0-1,.17-1.94.27-2.91a31.3,31.3,0,0,1,.59,7.16,15.49,15.49,0,0,0,.24,3.33,1.72,1.72,0,0,0,1.33,1c.46,0,.91-.74,1.27-1.22a1.7,1.7,0,0,0,.14-.93c0-3.84.09-7.67,0-11.51-.07-2.8-1.21-4.27-4-4.47a67.86,67.86,0,0,0-10.51,0c-2.82.23-3.85,1.58-3.92,4.47-.1,3.83,0,7.67,0,11.51a4.25,4.25,0,0,0,.4,1.83,1.27,1.27,0,0,0,2.24,0,10.42,10.42,0,0,0,.48-2.77C66.39,22.62,66.17,19.8,67.08,17ZM33.47,4.26a4.22,4.22,0,0,0-8.41-.5,4.21,4.21,0,1,0,8.41.5Zm12.62-.19a4.18,4.18,0,0,0,4.24,4.23A4.32,4.32,0,0,0,54.48,4a4.22,4.22,0,0,0-4-3.94A4.06,4.06,0,0,0,46.09,4.08Zm-32.69,0A4.05,4.05,0,0,0,9.07,0,4.19,4.19,0,0,0,5,4,4.28,4.28,0,0,0,9.18,8.31,4.14,4.14,0,0,0,13.4,4.08Zm63.06,0A4.14,4.14,0,0,0,72.12,0a4,4,0,0,0-4,3.9,4.09,4.09,0,0,0,4.05,4.37A4.21,4.21,0,0,0,76.47,4.11Z"/><path d="M14.67,16.9c-.05,1.41-.15,2.82-.15,4.23,0,7.83,0,15.65,0,23.48a14.87,14.87,0,0,1-.29,3.79,2.23,2.23,0,0,1-1.74,1.21,2.26,2.26,0,0,1-1.72-1.24,11.33,11.33,0,0,1-.26-3.31c0-4.79,0-9.58-.07-14.37,0-.83-.25-1.59-1.67-1.42-.1,1.15-.3,2.37-.31,3.59,0,4.47-.1,8.95,0,13.42,0,2-1,3.62-2.39,3.44-1.23-.16-1.88-1.2-1.91-3.4-.05-4,0-8,0-12C4,28.77,3.86,23.19,3.71,16.49c-1.24,4.76.24,8.69-1.2,12.22C.9,29.16.17,28.43.1,27.12,0,25,0,23,0,20.89S0,16.73.07,14.66c.14-2.54,1.21-4,3.73-4.19a80.9,80.9,0,0,1,11.44.07c2.1.15,3.14,1.45,3.2,3.56.13,4.31,0,8.62,0,12.93a1.63,1.63,0,0,1-.33.88c-.17.24-.47.53-.71.53-.43,0-1.11-.1-1.23-.37a7.68,7.68,0,0,1-.77-2.65C15.23,22.58,15.52,19.72,14.67,16.9Z"/><path d="M23.83,16.89c-.88,2.46-.62,5-.72,7.46a28.77,28.77,0,0,1-.35,3.78c-.05.31-.68.71-1.07.73a1.44,1.44,0,0,1-1.14-.62,4.06,4.06,0,0,1-.42-1.81c0-3.84,0-7.67,0-11.51,0-2.34.95-4.28,3.93-4.5a73.15,73.15,0,0,1,11,.06c2.33.18,3.42,1.55,3.49,3.86.12,4.15,0,8.31,0,12.46a1.49,1.49,0,0,1-.24.91,2.07,2.07,0,0,1-1.1.79A1.4,1.4,0,0,1,36,27.91a5.74,5.74,0,0,1-.56-2.24,46.79,46.79,0,0,0-.62-8.59c-.07,1.14-.19,2.28-.2,3.42,0,8-.07,16-.1,24,0,1.12,0,2.24-.08,3.35a2,2,0,0,1-1.83,1.87,1.86,1.86,0,0,1-2-1.62,31.48,31.48,0,0,1-.15-3.35c0-3.84,0-7.67,0-11.51,0-1.27-.12-2.53-.17-3.67-1.09-.68-1.79-.33-1.84.63-.13,2.87-.12,5.75-.15,8.62,0,2.4,0,4.8,0,7.19A5.41,5.41,0,0,1,28,48.33a2.47,2.47,0,0,1-1.7,1.27,2.27,2.27,0,0,1-1.78-1.2,14.1,14.1,0,0,1-.34-3.78c-.06-8-.09-16-.14-24C24,19.39,23.89,18.14,23.83,16.89Z"/><path d="M55.74,17.18q-.08,10.05-.16,20.1c0,2.72,0,5.44,0,8.16a21,21,0,0,1-.09,2.39,2,2,0,0,1-1.86,1.85,1.85,1.85,0,0,1-2-1.62,36.19,36.19,0,0,1-.18-3.83c0-4.16,0-8.32,0-12.47A9.18,9.18,0,0,0,51,29.45c0-.16-.52-.24-.81-.29a.48.48,0,0,0-.41.2,9.43,9.43,0,0,0-.5,2.25c0,4.48,0,9,0,13.43a11.25,11.25,0,0,1-.28,3.31,2.24,2.24,0,0,1-1.69,1.25,2.3,2.3,0,0,1-1.77-1.21,10.64,10.64,0,0,1-.3-3.31c0-8-.06-16-.1-24a23.78,23.78,0,0,0-.36-4.24c-.77,2-.42,4-.51,6-.07,1.59,0,3.21-.21,4.78-.16,1.17-1.07,1.47-2.35,1a10.75,10.75,0,0,1-.45-2.16c-.05-3.84-.09-7.68,0-11.51.06-2.92,1-4.28,3.85-4.52a67.31,67.31,0,0,1,10.52-.05c2.79.2,4,1.64,4,4.43.1,3.83,0,7.67,0,11.51a2.82,2.82,0,0,1-.28,1.39c-.22.37-.77.87-1.07.81a2.07,2.07,0,0,1-1.42-1,9.78,9.78,0,0,1-.29-2.84c0-2.54,0-5.07,0-7.61Z"/><path d="M67.08,17c-.91,2.78-.69,5.6-.81,8.4a10.42,10.42,0,0,1-.48,2.77,1.27,1.27,0,0,1-2.24,0,4.25,4.25,0,0,1-.4-1.83c0-3.84-.09-7.67,0-11.51.08-2.89,1.1-4.24,3.92-4.47a67.86,67.86,0,0,1,10.51,0c2.76.21,3.9,1.67,4,4.47.09,3.83,0,7.67,0,11.51a1.7,1.7,0,0,1-.14.93c-.36.48-.8,1.17-1.27,1.22a1.72,1.72,0,0,1-1.33-1,15.49,15.49,0,0,1-.24-3.33A31.3,31.3,0,0,0,78,17c-.09,1-.26,1.94-.27,2.91-.06,8.31-.08,16.62-.15,24.93a12.66,12.66,0,0,1-.41,3.77c-.17.53-1.23,1-1.93,1a1.81,1.81,0,0,1-1.39-1,12.18,12.18,0,0,1-.41-3.29c0-4.31,0-8.63,0-12.94a15.7,15.7,0,0,0-.34-2.83c0-.18-.52-.4-.78-.38s-.68.28-.72.49a17.05,17.05,0,0,0-.3,2.83c0,4,0,8,0,12,0,1.12,0,2.24-.1,3.35a1.9,1.9,0,0,1-1.78,1.9,2,2,0,0,1-2.12-2.08c-.09-1.27-.07-2.55-.07-3.83Q67.13,32,67.08,20.3C67.08,19.2,67.08,18.11,67.08,17Z"/><path d="M33.47,4.26a4.21,4.21,0,1,1-8.41-.5,4.22,4.22,0,0,1,8.41.5Z"/><path d="M46.09,4.08A4.06,4.06,0,0,1,50.44,0a4.22,4.22,0,0,1,4,3.94,4.32,4.32,0,0,1-4.16,4.36A4.18,4.18,0,0,1,46.09,4.08Z"/><path d="M13.4,4.08A4.14,4.14,0,0,1,9.18,8.31,4.28,4.28,0,0,1,5,4,4.19,4.19,0,0,1,9.07,0,4.05,4.05,0,0,1,13.4,4.08Z"/><path d="M76.47,4.11a4.21,4.21,0,0,1-4.3,4.18,4.09,4.09,0,0,1-4.05-4.37,4,4,0,0,1,4-3.9A4.14,4.14,0,0,1,76.47,4.11Z"/></g></g></svg>