<svg xmlns="http://www.w3.org/2000/svg" viewBox="0 0 78.29 66.93"><title>exit_icon</title><g id="Layer_2" data-name="Layer 2"><g id="Layer_1-2" data-name="Layer 1"><path d="M61.23,66.93A16.86,16.86,0,1,1,78.29,50.47,16.78,16.78,0,0,1,61.23,66.93Zm-1-22.06c1.49-.94,3.09-.3,4.65-.35a1.81,1.81,0,0,0,1.34-1c.15-.47-.16-1.51-.47-1.61A6,6,0,0,1,62.19,39c-.11-.19-1.47,0-1.58.23a8.62,8.62,0,0,1-3,3.46,4.38,4.38,0,0,0,.37,7.3c.9.63,2,1,3,1.52a11.54,11.54,0,0,1,1.91,1.36,1.4,1.4,0,0,1-.24,2.07,9.11,9.11,0,0,1-2.67.69c-1.19.13-2.34-1.14-3.57-.26-.72,1.25-.54,2.16.77,2.75s2.7.75,3.08,2.61c.2,1,2,.89,2.2-.1C62.7,59,63.92,58.39,65,57.5c3.38-2.69,3-6.33-.73-8.52-1.1-.64-2.31-1.08-3.42-1.7A1.59,1.59,0,0,1,60.21,44.87Z"/><path d="M45.62,21.58c-.12,1.13-.28,2-.29,3,0,2.72-.06,5.44,0,8.15a9,9,0,0,1-1.53,5.37C38.67,46,38.89,54,43.77,62l1.52,2.46c-.39.45-.63,1-1,1.09a21.9,21.9,0,0,1-10.16-.1c-1.09-1.87-.74-3.67-.74-5.4,0-11,0-22.06,0-33.1,0-1.73.26-3.51-.5-5.32L26.59,21a6.09,6.09,0,0,1,.26-2.07Q32.35,9.93,38,1c.23-.37.74-.57,1.33-1A7,7,0,0,1,41,1.39Q46.39,9.9,51.65,18.49a9.24,9.24,0,0,1,.6,2.11,12.51,12.51,0,0,1-2.2.7C48.65,21.46,47.24,21.49,45.62,21.58Z"/><path d="M28.26,30.88a39.48,39.48,0,0,1,.5,4.19c0,8.92,0,17.84,0,26.76a16.07,16.07,0,0,1-.08,1.91c-.19,1.58-.88,2.41-2.4,2.46-2.54.09-5.09.06-7.64-.06a2,2,0,0,1-1.87-1.86,19.69,19.69,0,0,1-.11-2.38c0-8.92,0-17.84,0-26.76,0-4.13.21-4.31,4.3-4.35C23.21,30.76,25.42,30.84,28.26,30.88Z"/><path d="M.54,41.1a22.65,22.65,0,0,1,11,.07c1,3.93.39,8.06.44,12.13s.4,7.92-.34,12C8,66.42,4.41,66.12.66,65.54-.46,61.37.19,57.24.15,53.17S-.29,45.25.54,41.1Z"/></g></g></svg>