<svg xmlns="http://www.w3.org/2000/svg" viewBox="0 0 90.94 61.69"><title>fixtures_icon</title><g id="Layer_2" data-name="Layer 2"><g id="Layer_1-2" data-name="Layer 1"><path d="M82.14,31.12A22.07,22.07,0,1,1,60.05,8.79,22.16,22.16,0,0,1,82.14,31.12ZM59.51,30a11.67,11.67,0,0,1-2.34-.42c-2.36-1-4.66-2-7-3a7.91,7.91,0,0,0-2.28-.43c-.2,0-.56.32-.63.56a1,1,0,0,0,.18.87,5.58,5.58,0,0,0,1.52,1.1c3.49,1.55,7,3.08,10.51,4.54a11.41,11.41,0,0,0,2.54.36A104.36,104.36,0,0,0,62,20c0-.41-.71-.77-1.34-1.41C59.16,22.48,60.48,26.21,59.51,30Z"/><path d="M38.19,48.46c.73-.6,1.19-1,1.68-1.36.1-.07.3,0,.78,0,.83,2,.8,4.1.77,6.45-2.52.81-4.73.35-7.21-.92l1.48-1.86c0-.27,0-.62-.09-.84-.66-1.09-1.45-2.11-2.07-3.23-6.34-11.61-6-23,1.57-33.88A30.33,30.33,0,0,1,66.8.79C79.14,3.66,88.58,13.31,90.51,25.63c3.38,21.62-13.9,36.53-30.31,36.05a44.93,44.93,0,0,1-6.59-.84c-.33-.06-.62-1-.69-1.5,0-.18.68-.66,1.05-.66,2.07,0,4.15.14,6.22.21,10.52.38,22-6.49,26.21-18.22A28,28,0,0,0,67.62,3.84C51.81-.53,35.38,9.5,32.47,25.62A27.28,27.28,0,0,0,38.19,48.46Z"/><path d="M16.46,19.32c2.87,0,5.74,0,8.62,0a5.88,5.88,0,0,1,1.85.37c.21.07.39.51.39.78s-.16.72-.37.8a5.13,5.13,0,0,1-1.83.45q-8.85.05-17.71,0a5.06,5.06,0,0,1-1.82-.46,1,1,0,0,1-.43-.76,1,1,0,0,1,.41-.77,5.39,5.39,0,0,1,1.81-.41c3,0,6.06,0,9.09,0Z"/><path d="M22.2,30.66a14.29,14.29,0,0,1-2.67.51c-5.59,0-11.18,0-16.77,0a9.24,9.24,0,0,1-2.32-.42A.89.89,0,0,1,0,30.08a1,1,0,0,1,.36-.75,2.88,2.88,0,0,1,1.33-.43q9.34,0,18.69,0C21.32,28.9,22.36,29,22.2,30.66Z"/><path d="M4.94,40.1c.34-.64.47-1.29.75-1.37a11.21,11.21,0,0,1,2.79-.35c5.08,0,10.17,0,15.25,0a14.14,14.14,0,0,1,1.9.05c.75.1,1.75.14,1.58,1.23-.06.38-.85.69-1.35.94a2.22,2.22,0,0,1-.94.08c-5.88,0-11.76,0-17.63,0A11.5,11.5,0,0,1,4.94,40.1Z"/></g></g></svg>