<svg xmlns="http://www.w3.org/2000/svg" viewBox="0 0 70.3 55.54"><title>floor_icon</title><g id="Layer_2" data-name="Layer 2"><g id="Layer_1-2" data-name="Layer 1"><path d="M69.73,8.36c.73,4.25.76,42.49.11,46.88-1.3.78-2.42-.16-3.52-.56-6.46-2.32-12.89-4.74-19.63-7.24L37,51,25.74,55a4.43,4.43,0,0,1-3.24.29C15,52.55,7.54,49.81,0,47V0A23.37,23.37,0,0,1,3.28.66C9.14,2.77,15,4.87,20.8,7.14a7.64,7.64,0,0,0,6,0C32.29,5,37.9,3.15,43.39,1a8.17,8.17,0,0,1,6.44,0C56.37,3.51,63,5.87,69.73,8.36ZM45.53,44.81c0-1.58,0-3.32,0-5.06-.09-4.77-.3-9.54-.29-14.31,0-6.85.18-13.71.23-20.56a8.39,8.39,0,0,0-.57-2c-6.87,2.39-13.41,4.75-20,7.39,0,3.72-.24,7.23.07,10.7s-.43,6.92-.22,10.4,0,7,.05,10.53-.1,7,.11,10.72c5.09-1,9.39-3.18,13.86-4.73C41,47.13,43.38,46.64,45.53,44.81ZM22.37,10,3.4,3.27a.71.71,0,0,0-.47,0c-.13.06-.23.21-.33.3-.66,4.21-.64,37.66,0,41.72a11.19,11.19,0,0,0,1.56.85q8.32,3.07,16.66,6.08a4.33,4.33,0,0,0,1.39,0C22.81,48.78,23,16.69,22.37,10ZM47.89,2.85V23.06c1.86,1.25,2,1.45.93,2.21a2.57,2.57,0,0,0-1.07,2.45c0,4.79,0,9.59,0,14.38,0,1.08.16,2.15.25,3.33,6.56,2.57,12.91,5,19.69,7.22.17-1.14.35-1.89.37-2.64.43-13.8.18-35.79-.47-40C61.36,7.63,55,5.17,47.89,2.85Z"/><path d="M43.69,27.73l-.52.9a5,5,0,0,1-.92-.67c-.06-.06.27-.67.37-.65A4.67,4.67,0,0,1,43.69,27.73Z"/><path d="M27.27,23.59l.86,1.15c-.21.15-.42.41-.65.43s-.7-.22-.69-.3A6.72,6.72,0,0,1,27.27,23.59Z"/><path d="M30.87,26.81l-.65.57-.71-.92c.27-.11.55-.34.79-.29S30.66,26.55,30.87,26.81Z"/><path d="M33,29.06a4.46,4.46,0,0,1-.37-1c0-.07.56-.37.64-.31a4.65,4.65,0,0,1,.68.9Z"/><path d="M37.17,29.67l-.63.47L36,29.2c.27-.09.59-.31.81-.24S37.05,29.42,37.17,29.67Z"/><path d="M40.48,29.63l-.66.56-.6-.94c.27-.1.57-.31.8-.25S40.32,29.4,40.48,29.63Z"/><path d="M21.9,21.91l-.4,1a7.24,7.24,0,0,1-1-.54s.2-.66.32-.66A4.25,4.25,0,0,1,21.9,21.91Z"/><path d="M13.38,27.61c-.19.24-.49.7-.56.67a6.73,6.73,0,0,1-1.08-.73,6.29,6.29,0,0,1,1.12-.64C12.94,26.88,13.2,27.36,13.38,27.61Z"/><path d="M5.33,37.63a4.77,4.77,0,0,1-.51.8,2.88,2.88,0,0,1-1-.58s.3-.7.4-.68A4.61,4.61,0,0,1,5.33,37.63Z"/><path d="M18.22,22.94l-.56.63L17,22.64c.26-.1.55-.31.79-.27S18.11,22.78,18.22,22.94Z"/><path d="M9.76,33.2c.34.22.76.44.74.5a2.37,2.37,0,0,1-.56.89c-.06.06-.65-.28-.64-.34A6,6,0,0,1,9.76,33.2Z"/><path d="M15.56,24.56c-.19.37-.33.84-.43.83a1.71,1.71,0,0,1-.92-.39c-.07-.06.15-.68.25-.68A4.74,4.74,0,0,1,15.56,24.56Z"/><path d="M11.81,30.36c-.19.38-.34.86-.45.85a1.77,1.77,0,0,1-1-.41c-.07-.06.17-.71.26-.71A5.14,5.14,0,0,1,11.81,30.36Z"/><path d="M8.35,36.69l-.51.67c-.16-.24-.45-.47-.44-.71s.3-.45.47-.68Z"/><path d="M65.74,39.62c-2.09-.72-2.09-.72-4.74-.07-1-1,.55-1.6.49-2.37s-.87-1.78-.74-2.58,1-1.31,1.79-2.16l1.09,2L65.77,34c.2.27.57.6.52.72-.66,1.41-1.06,2.78-.09,4.23C66.26,39,65.9,39.39,65.74,39.62Z"/><path d="M53.07,23.17l-.48.81a3.19,3.19,0,0,1-.89-.6c-.08-.11.2-.5.32-.76Z"/><path d="M61.05,27.29A3.29,3.29,0,0,1,60,27.5c-.15,0-.24-.48-.36-.74l1.09-.42Z"/><path d="M58.87,22.83l1.07.87c-.22.22-.48.65-.63.61a3.79,3.79,0,0,1-1-.63Z"/><path d="M55.62,23.5l-.53-.65,1-.55c.09.27.31.57.24.79S55.86,23.37,55.62,23.5Z"/><path d="M61.58,29.44c.18.36.47.76.4.84a2.2,2.2,0,0,1-.91.56c-.06,0-.44-.52-.39-.59A6,6,0,0,1,61.58,29.44Z"/></g></g></svg>