<?xml version="1.0" encoding="UTF-8" standalone="no"?>
<!-- Created with Inkscape (http://www.inkscape.org/) -->

<svg
   xmlns:dc="http://purl.org/dc/elements/1.1/"
   xmlns:cc="http://creativecommons.org/ns#"
   xmlns:rdf="http://www.w3.org/1999/02/22-rdf-syntax-ns#"
   xmlns:svg="http://www.w3.org/2000/svg"
   xmlns="http://www.w3.org/2000/svg"
   xmlns:sodipodi="http://sodipodi.sourceforge.net/DTD/sodipodi-0.dtd"
   xmlns:inkscape="http://www.inkscape.org/namespaces/inkscape"
   id="svg2"
   version="1.1"
   inkscape:version="0.91 r13725"
   xml:space="preserve"
   width="852.04114"
   height="148.95625"
   viewBox="0 0 852.04117 148.95626"
   sodipodi:docname="monolith_znak+logotip.ai"><metadata
     id="metadata8"><rdf:RDF><cc:Work
         rdf:about=""><dc:format>image/svg+xml</dc:format><dc:type
           rdf:resource="http://purl.org/dc/dcmitype/StillImage" /><dc:title></dc:title></cc:Work></rdf:RDF></metadata><defs
     id="defs6"><clipPath
       clipPathUnits="userSpaceOnUse"
       id="clipPath24"><path
         d="m 0,850.394 850.394,0 L 850.394,0 0,0 0,850.394 Z"
         id="path26"
         inkscape:connector-curvature="0" /></clipPath></defs><sodipodi:namedview
     pagecolor="#ffffff"
     bordercolor="#666666"
     borderopacity="1"
     objecttolerance="10"
     gridtolerance="10"
     guidetolerance="10"
     inkscape:pageopacity="0"
     inkscape:pageshadow="2"
     inkscape:window-width="1600"
     inkscape:window-height="882"
     id="namedview4"
     showgrid="false"
     fit-margin-top="0"
     fit-margin-left="0"
     fit-margin-right="0"
     fit-margin-bottom="0"
     borderlayer="true"
     inkscape:zoom="0.44402945"
     inkscape:cx="145.24548"
     inkscape:cy="-182.13705"
     inkscape:window-x="0"
     inkscape:window-y="1080"
     inkscape:window-maximized="0"
     inkscape:current-layer="g10" /><g
     id="g10"
     inkscape:groupmode="layer"
     inkscape:label="monolith_znak+logotip"
     transform="matrix(1.25,0,0,-1.25,-105.36675,605.97437)"><g
       id="g12"
       transform="translate(138.9524,368.5525)"><path
         d="m 0,0 0,53.719 1.022,0.573 45.488,-26.259 0,-1.182 L 0,0 Z M 0,113.289 45.912,86.782 0,60.733 0,113.289 Z M 46.51,30.38 3.075,55.457 46.51,80.099 l 0,-49.719 z m -48.546,30.353 -45.912,26.048 45.912,26.508 0,-52.556 z m 0,-60.733 -46.516,26.857 0.002,1.17 45.492,26.265 1.022,-0.585 0,-53.707 z M -48.552,80.128 -5.111,55.457 -48.546,30.38 -48.552,80.128 Z m 101.174,5.126 -53.64,30.973 -53.641,-30.996 0,-57.341 53.641,-30.828 53.641,30.986 -10e-4,57.206 z"
         style="fill:#1d1d1b;fill-opacity:1;fill-rule:nonzero;stroke:none"
         id="path14"
         inkscape:connector-curvature="0" /></g><g
       id="g16"
       transform="translate(249.4287,450.7234)"><path
         d="M 0,0 3.98,0 21.738,-30.311 39.878,0 l 3.521,0 2.296,-51.053 -3.674,0 -1.761,45.312 -17.604,-29.238 -2.373,0 -17.145,29.161 -1.76,-45.235 -3.674,0 L 0,0 Z"
         style="fill:#1d1d1b;fill-opacity:1;fill-rule:nonzero;stroke:none"
         id="path18"
         inkscape:connector-curvature="0" /></g><g
       id="g20"><g
         id="g22"
         clip-path="url(#clipPath24)"><g
           id="g28"
           transform="translate(352.9123,401.8902)"><path
             d="m 0,0 c 3.215,0 6.148,0.598 8.802,1.799 2.653,1.198 4.911,2.856 6.774,4.975 1.862,2.116 3.303,4.592 4.325,7.423 1.02,2.833 1.531,5.856 1.531,9.071 0,3.215 -0.511,6.25 -1.531,9.108 -1.022,2.858 -2.463,5.332 -4.325,7.426 -1.863,2.091 -4.121,3.75 -6.774,4.975 -2.654,1.224 -5.587,1.837 -8.802,1.837 -3.215,0 -6.15,-0.613 -8.802,-1.837 -2.655,-1.225 -4.913,-2.884 -6.774,-4.975 -1.864,-2.094 -3.305,-4.568 -4.325,-7.426 -1.021,-2.858 -1.531,-5.893 -1.531,-9.108 0,-3.215 0.51,-6.238 1.531,-9.071 1.02,-2.831 2.461,-5.307 4.325,-7.423 1.861,-2.119 4.119,-3.777 6.774,-4.975 C -6.15,0.598 -3.215,0 0,0 m 0,-3.445 c -3.674,0 -7.055,0.689 -10.142,2.067 -3.088,1.378 -5.754,3.265 -7.998,5.664 -2.247,2.397 -4.007,5.217 -5.282,8.458 -1.276,3.239 -1.914,6.748 -1.914,10.524 0,3.725 0.638,7.221 1.914,10.486 1.275,3.265 3.035,6.11 5.282,8.535 2.244,2.423 4.91,4.325 7.998,5.702 3.087,1.378 6.468,2.067 10.142,2.067 3.674,0 7.054,-0.689 10.141,-2.067 3.087,-1.377 5.753,-3.279 7.999,-5.702 2.245,-2.425 4.005,-5.27 5.281,-8.535 1.275,-3.265 1.914,-6.761 1.914,-10.486 0,-3.776 -0.639,-7.285 -1.914,-10.524 C 22.145,9.503 20.385,6.683 18.14,4.286 15.894,1.887 13.228,0 10.141,-1.378 7.054,-2.756 3.674,-3.445 0,-3.445"
             style="fill:#1d1d1b;fill-opacity:1;fill-rule:nonzero;stroke:none"
             id="path30"
             inkscape:connector-curvature="0" /></g><g
           id="g32"
           transform="translate(408.2507,450.7234)"><path
             d="m 0,0 3.827,0 32.76,-45.543 0,45.543 3.597,0 0,-51.053 -3.826,0 -32.761,44.929 0,-44.929 -3.597,0 L 0,0 Z"
             style="fill:#1d1d1b;fill-opacity:1;fill-rule:nonzero;stroke:none"
             id="path34"
             inkscape:connector-curvature="0" /></g><g
           id="g36"
           transform="translate(505.3051,401.8902)"><path
             d="m 0,0 c 3.215,0 6.148,0.598 8.802,1.799 2.653,1.198 4.911,2.856 6.774,4.975 1.862,2.116 3.303,4.592 4.325,7.423 1.02,2.833 1.531,5.856 1.531,9.071 0,3.215 -0.511,6.25 -1.531,9.108 -1.022,2.858 -2.463,5.332 -4.325,7.426 -1.863,2.091 -4.121,3.75 -6.774,4.975 -2.654,1.224 -5.587,1.837 -8.802,1.837 -3.215,0 -6.15,-0.613 -8.802,-1.837 -2.655,-1.225 -4.913,-2.884 -6.774,-4.975 -1.864,-2.094 -3.305,-4.568 -4.325,-7.426 -1.021,-2.858 -1.531,-5.893 -1.531,-9.108 0,-3.215 0.51,-6.238 1.531,-9.071 1.02,-2.831 2.461,-5.307 4.325,-7.423 1.861,-2.119 4.119,-3.777 6.774,-4.975 C -6.15,0.598 -3.215,0 0,0 m 0,-3.445 c -3.674,0 -7.055,0.689 -10.142,2.067 -3.088,1.378 -5.754,3.265 -7.998,5.664 -2.247,2.397 -4.007,5.217 -5.282,8.458 -1.276,3.239 -1.914,6.748 -1.914,10.524 0,3.725 0.638,7.221 1.914,10.486 1.275,3.265 3.035,6.11 5.282,8.535 2.244,2.423 4.91,4.325 7.998,5.702 3.087,1.378 6.468,2.067 10.142,2.067 3.674,0 7.054,-0.689 10.141,-2.067 3.087,-1.377 5.753,-3.279 7.999,-5.702 2.246,-2.425 4.005,-5.27 5.281,-8.535 1.276,-3.265 1.914,-6.761 1.914,-10.486 0,-3.776 -0.638,-7.285 -1.914,-10.524 C 22.145,9.503 20.386,6.683 18.14,4.286 15.894,1.887 13.228,0 10.141,-1.378 7.054,-2.756 3.674,-3.445 0,-3.445"
             style="fill:#1d1d1b;fill-opacity:1;fill-rule:nonzero;stroke:none"
             id="path38"
             inkscape:connector-curvature="0" /></g><g
           id="g40"
           transform="translate(560.6426,450.7234)"><path
             d="m 0,0 3.674,0 0,-47.609 28.934,0 0,-3.444 L 0,-51.053 0,0 Z"
             style="fill:#1d1d1b;fill-opacity:1;fill-rule:nonzero;stroke:none"
             id="path42"
             inkscape:connector-curvature="0" /></g><path
           d="m 624.172,450.723 3.674,0 0,-51.053 -3.674,0 0,51.053 z"
           style="fill:#1d1d1b;fill-opacity:1;fill-rule:nonzero;stroke:none"
           id="path44"
           inkscape:connector-curvature="0" /><g
           id="g46"
           transform="translate(676.8322,447.4323)"><path
             d="m 0,0 -19.825,0 0,3.291 43.323,0 0,-3.291 -19.824,0 0,-47.762 -3.674,0 L 0,0 Z"
             style="fill:#1d1d1b;fill-opacity:1;fill-rule:nonzero;stroke:none"
             id="path48"
             inkscape:connector-curvature="0" /></g><g
           id="g50"
           transform="translate(726.4303,450.7234)"><path
             d="m 0,0 3.674,0 0,-22.733 32.148,0 0,22.733 3.674,0 0,-51.053 -3.674,0 0,24.876 -32.148,0 0,-24.876 -3.674,0 L 0,0 Z"
             style="fill:#1d1d1b;fill-opacity:1;fill-rule:nonzero;stroke:none"
             id="path52"
             inkscape:connector-curvature="0" /></g></g></g></g></svg>