<svg xmlns="http://www.w3.org/2000/svg" viewBox="0 0 51.55 75.75"><title>products</title><g id="Layer_2" data-name="Layer 2"><g id="Layer_1-2" data-name="Layer 1"><path d="M15.88,50.3a2.91,2.91,0,0,0-2.59,2.94c-.59,5.83.58,11.15,4.63,15.59C19,70,20.21,71.06,21.28,72.25a4.42,4.42,0,0,1,.83,1.66,1.54,1.54,0,0,1-1.66,1.81,4.36,4.36,0,0,1-1.73-.7C11.89,69.5,8.61,62.43,9.31,53.58c.28-3.52,1.66-6.12,5.18-7.28A16.89,16.89,0,0,0,16,45.58c.08-1.13.25-2.37.25-3.6,0-5.6,0-11.2,0-16.8a23.68,23.68,0,0,1,.1-3.35,5.83,5.83,0,0,1,5.93-5.19,5.61,5.61,0,0,1,5.53,5.5c.11,1.43,0,2.88.05,4.32,0,1.27.11,2.54.17,3.92,2.38.64,4.85.79,6.63,2.69.33.35,1.22.3,1.83.23,3.58-.41,5.76,1.31,6.94,4.43a3.83,3.83,0,0,0,.93.47c4.95.8,6.45,2.21,6.92,7a66,66,0,0,1-1.06,17.19,94.65,94.65,0,0,1-2.62,10.2A5.75,5.75,0,0,1,46.33,75a2.71,2.71,0,0,1-2.11.46,1.45,1.45,0,0,1-1-1.89A17.08,17.08,0,0,1,44,71.36c3-8.25,3.68-16.83,3.43-25.52a5.66,5.66,0,0,0-.5-2.31,2.05,2.05,0,0,0-1.41-1.07,1.88,1.88,0,0,0-1.44,1,18.39,18.39,0,0,0-.65,3.25c-.28,1.59-.9,2.26-2,2.13s-1.67-.84-1.75-2.46,0-3.52-.08-5.28a9.46,9.46,0,0,0-.38-2.82,1.87,1.87,0,0,0-1.45-.9,2,2,0,0,0-1.52.84,5.45,5.45,0,0,0-.52,2.28c-.1,1.59,0,3.2-.12,4.79-.07,1.18-.81,1.9-1.76,1.84a1.91,1.91,0,0,1-1.89-1.82c-.16-1.75-.08-3.51-.13-5.27a23.81,23.81,0,0,0-.26-3.81c-.09-.48-.87-1.19-1.28-1.16a2.65,2.65,0,0,0-1.93,1,7.11,7.11,0,0,0-.41,2.79c-.1,1.91-.06,3.83-.21,5.74A1.49,1.49,0,0,1,26.08,46a1.69,1.69,0,0,1-1.76-1.33,16.76,16.76,0,0,1-.26-3.33c0-5.28,0-10.56,0-15.84a24.52,24.52,0,0,0-.18-3.34,1.51,1.51,0,0,0-1.67-1.34,1.61,1.61,0,0,0-1.71,1.36A24.76,24.76,0,0,0,20.24,26c0,8,0,16,0,24a15.22,15.22,0,0,1-.28,3.8c-.15.56-1.07,1.12-1.73,1.25a1.79,1.79,0,0,1-1.46-.94A28.44,28.44,0,0,1,15.88,50.3Z"/><path d="M38.38,8.06a3.44,3.44,0,0,1-.6,1.26c-2.08,2.17-4.22,4.27-6.35,6.38a2.19,2.19,0,0,1-.4.25,1.92,1.92,0,0,1-2.53-.46,1.57,1.57,0,0,1,.06-2.15c1.71-1.86,3.47-3.67,5.26-5.45A12.82,12.82,0,0,1,36,6.13C36.95,5.55,38.41,6.5,38.38,8.06Z"/><path d="M16.17,14.35a1.73,1.73,0,0,1-1.91,1.85A3,3,0,0,1,13,15.65c-2.25-2.22-4.5-4.45-6.67-6.74a1.62,1.62,0,0,1,.25-2.49A1.55,1.55,0,0,1,8.72,6.3c2.41,2.28,4.76,4.62,7.09,7C16.09,13.58,16.11,14.15,16.17,14.35Z"/><path d="M23.95,6.57a37.7,37.7,0,0,1-.07,4.77A2.75,2.75,0,0,1,22.46,13c-.73.38-2-.56-2-1.52-.07-3.34-.08-6.68.07-10,0-.51,1-1.17,1.63-1.4C23-.24,23.89.67,24,1.78,24,3.37,24,5,24,6.57Z"/><path d="M6.19,24.15C4.6,24.07,3,24,1.43,23.9A1.49,1.49,0,0,1,0,22.31a1.54,1.54,0,0,1,1.29-1.75c3.47-.1,7-.1,10.43.05.45,0,1.11,1.11,1.21,1.77a1.44,1.44,0,0,1-1.48,1.53c-1.74.09-3.49,0-5.24,0Z"/><path d="M31.65,23.49a5,5,0,0,1,.05-1.91,2.08,2.08,0,0,1,1.38-1.1c3.15-.14,6.32-.2,9.47-.13a1.85,1.85,0,0,1,1.81,1.86A1.65,1.65,0,0,1,42.59,24C39,24,35.36,24.56,31.65,23.49Z"/></g></g></svg>