<svg xmlns="http://www.w3.org/2000/svg" viewBox="0 0 115.85 54.99"><defs><style>.cls-1{fill:#fff;}</style></defs><title>street_icon</title><g id="Layer_2" data-name="Layer 2"><g id="Layer_1-2" data-name="Layer 1"><path d="M75,31.09a19.13,19.13,0,0,0-.74-10.83A51.67,51.67,0,0,0,73.56,32c.27,5.9.07,11.83,0,17.74a8.17,8.17,0,0,1-.48,2.78c-.34.88-1,1.9-2.08,1.56a3.47,3.47,0,0,1-1.91-1.88,9.93,9.93,0,0,1-.28-3.31c0-4.64,0-9.27,0-13.91a19,19,0,0,0-.54-4.47,15.5,15.5,0,0,0-1.09,6c-.09,4.47-.14,9-.28,13.42a13.68,13.68,0,0,1-.56,3.24,1.35,1.35,0,0,1-1,.79,2.12,2.12,0,0,1-1.53-.79,7,7,0,0,1-.63-2.74c-.18-6.87-.3-13.74-.42-20.61,0-1.11,0-2.22,0-3.07l-4.43-5.09-6-1.13c-1.15,1.46-1,3.19-.48,4.84C54,32.8,54,40.52,55.13,48.09c0,.14-.1.3-.21.63l-2.67,1.53c-1.09,1.15-.11,3.35-2.11,4-.14-.1-.28-.19-.4-.29-1.18-1-.24-3.7-2.48-3.54-1.69.12-1,2.54-2.39,3.66-.36-.36-.9-.68-1.09-1.15C42.6,50,42.62,50,40,48.38c-.5-3.5.57-6.91.92-10.38s.85-7,1.32-10.65c-1-1.29-2.16-2.62-3.2-4-1.36-1.82-1.28-3,.2-4.69C43,14.27,48.06,13.47,53,16.51c.94.58,1.83,1.26,2.75,1.89,2.63-4.16,3.84-5.21,8.16-6.95a10,10,0,0,1,2.75-.7c6.21-.58,8.81,2.3,10.62,6.91a16.73,16.73,0,0,1,.94,7.55c-.16,2.07-.38,4.13-.58,6.19-1,.88-1.76.09-2.58-.32ZM42.28,20.49c-1.68,1.18-1.69,1.18.66,3.55C44,22.56,43.25,21.51,42.28,20.49ZM63.2,16.82c-2.92,2.4-2.92,2.4-1.21,4.42Z"/><path d="M26.55,32.19c-1.91,1.61-1.67,3.39-1.7,5.1-.07,4.15,0,8.31-.13,12.46a16.56,16.56,0,0,1-.91,4.12c-.09.31-.75.62-1.14.61a1.49,1.49,0,0,1-1.14-.66,9,9,0,0,1-.78-2.7c-.79-8.28-1.33-16.57-.4-24.67C18.47,23.88,16.6,21.52,15,19c-1.27-1.92-1.19-3.19.48-4.67a31.8,31.8,0,0,1,5.14-3.42A35.12,35.12,0,0,1,24.33,9.3a24.36,24.36,0,0,1-2.27-3.25A4.21,4.21,0,0,1,24.65.25a4.09,4.09,0,0,1,5.28,2.84,5.75,5.75,0,0,1-.32,3.2,11.73,11.73,0,0,1-1.76,2.53c.76,1.52,2.15,1.56,3.3,2a13.4,13.4,0,0,1,5.53,3.68,3.43,3.43,0,0,1,.36,4.4c-1.55,2.42-3,4.95-5.47,6.62,0,4.94.06,9.89,0,14.83-.06,3.51-.21,7-.51,10.53-.11,1.34-.07,3-1.84,3.57-1,.32-2.07-1.2-2.28-3.66-.18-2.06-.11-4.15-.15-6.23Q26.65,38.41,26.55,32.19ZM26.33,10c-.42.44-.76.64-.77.85-.16,2.65-.3,5.3-.36,8,0,.52.06,1.31,1.36.94.14-2.2,0-4.51,0-6.8C26.57,12,26.43,11.08,26.33,10ZM17.27,16.8l2.14,4.1c.94-2,1.6-3.61,1.2-5.75Zm14-1.63a7.61,7.61,0,0,0,1.28,5.53l2-3.81Z"/><path d="M87.46,55a10.93,10.93,0,0,1-1.2-2.32c-.37-2.36-.65-4.73-.92-7.11a9.14,9.14,0,0,0-.13-2.37c-2.46-5.75-.74-11.54-.33-17.63-1-1.25-2.3-2.67-3.46-4.17-1.39-1.81-1.35-2.91.12-4.68a14.5,14.5,0,0,1,8.07-4.8A3.21,3.21,0,0,1,91,11.84c3.51.81,6.61,2.32,8.78,5.33a2.68,2.68,0,0,1,0,3.52c-1.28,1.62-2.57,3.23-3.7,4.65.25,4,.5,7.83.7,11.64.09,1.73.33,3.43-.92,5-.5.63-.29,1.83-.4,2.77-.3,2.53-.54,5.07-.94,7.59-.11.67-.72,1.26-1.28,2.18-2.73-4.06-1.33-8.65-2.93-13.27C89,46,90,50.48,87.46,55Zm9.9-36c-.65-.7-1.34-1-2-.11a3.15,3.15,0,0,0-.06,3.81C96.34,21.44,97.37,20.53,97.35,19ZM86.14,22.38a18.59,18.59,0,0,0-.29-3.22c-.08-.3-1-.54-1.47-.54-.24,0-.73.74-.66,1C84,20.79,84.42,22,86.14,22.38Z"/><path d="M106.09,27.74a5.51,5.51,0,0,1-1.82-5.06c.31-1.76,1.07-3.1,2.89-3.33a10,10,0,0,0,4-1.36c1.07-.64,2.78.66,2.53,1.94-.35,1.81-.22,3.8-1.94,5.21a12.34,12.34,0,0,0-1.91,2.75,15.9,15.9,0,0,1,2.61,2.51,18.14,18.14,0,0,1,1.45,3.53c.4,1,.81,2.08,1.17,3.14s1.32,2.25.44,3.75c-2.56-.62-1.5-4-3.63-4.89-1,.78-.54,1.79-.55,2.66-.06,4.47,0,8.95-.06,13.42,0,1.66-.77,2.82-1.48,2.48-1-.5-1-1.5-1-2.43,0-2.56,0-5.11-.07-7.67,0-.72.2-1.63-1.16-2.09-.09,1.11-.23,2.12-.25,3.13-.06,2.55,0,5.11-.14,7.66a1.79,1.79,0,0,1-1,1.34c-1,.18-1.35-.64-1.42-1.47-.1-1.11-.11-2.23-.11-3.35,0-3.83,0-7.67,0-11.5,0-.73-.14-1.46-.33-3.28l-3.08,6c-1.17-.1-1.39-.71-1.16-1.36,1-2.85,2.3-5.63,3.15-8.53C103.55,29.29,105.13,29.09,106.09,27.74Z"/><path d="M6.1,28.28c-1.81-2.53-3.35-4.5-2-7.08C5.31,19,7.37,18.9,9.64,19.25c3.21,2.89,1.91,5.85-.29,8.83a5.59,5.59,0,0,1,3.32,3.36c.83,2.57,1.91,5.06,2.81,7.62a7.08,7.08,0,0,1-.09,2.1c-2.47-1.34-2.06-3.94-3.54-5.29-1.08.31-.75,1.25-.76,1.94,0,4,0,8,0,12a19.4,19.4,0,0,1-.14,3.33A2.46,2.46,0,0,1,9.8,54.47c-.5.32-1.35-.58-1.39-1.52-.06-1.91,0-3.82-.08-5.74a13.14,13.14,0,0,0-.73-4.8A6.22,6.22,0,0,0,7,44.16c-.09,2.55,0,5.1-.11,7.65a7.81,7.81,0,0,1-.55,2.27c-.07.2-.52.36-.79.35s-.71-.22-.75-.41a13.28,13.28,0,0,1-.44-2.79c-.05-3.83,0-7.65,0-11.48,0-1.25,0-2.5,0-3.64-1.12-.48-1.37.16-1.63.73C2,38.23,1.84,39.87.38,41c-.62-2.09-.68-2.12,1.36-7.19C2.59,31.66,2.7,28.93,6.1,28.28Z"/><path d="M85.9,5.76A4.56,4.56,0,0,1,90.64,1a4.85,4.85,0,0,1,4.69,4.46,5.12,5.12,0,0,1-4.62,5.08A4.76,4.76,0,0,1,85.9,5.76Z"/><path d="M51.69,9a3.5,3.5,0,0,1-2.2,3.46,4.54,4.54,0,0,1-5.27-.84,4.11,4.11,0,0,1-.81-4.42c.16-.44.34-1,.69-1.23,1.45-.88,1.31-3.53,3.57-3.36C49,2.73,51.62,6.83,51.69,9Z"/><path d="M75,31.08,75.41,52h-.6c0-3.48-.06-7,0-10.44s.17-7,.25-10.46Z"/><path class="cls-1" d="M17.27,16.8l3.34-1.64c.41,2.14-.26,3.71-1.2,5.75Z"/><path class="cls-1" d="M31.28,15.17l3.24,1.73-2,3.81A7.61,7.61,0,0,1,31.28,15.17Z"/><path d="M63.9,4.76A4.56,4.56,0,0,1,68.64,0a4.85,4.85,0,0,1,4.69,4.46,5.12,5.12,0,0,1-4.62,5.08A4.76,4.76,0,0,1,63.9,4.76Z"/></g></g></svg>